<svg xmlns="http://www.w3.org/2000/svg" viewBox="0 0 181.93 180.96"><defs><style>.cls-1{fill:none;stroke:#fff;stroke-miterlimit:10;stroke-width:3px;}</style></defs><title>logo-outline-white</title><g id="Layer_2" data-name="Layer 2"><g id="Layer_1-2" data-name="Layer 1"><path class="cls-1" d="M90.58,1.5c23.83.33,44.68,8.26,62.07,24.72a88.13,88.13,0,0,1,27.44,72.34c-2.79,35.08-28.62,67.82-66.09,77.88a87.66,87.66,0,0,1-30.06,2.72,87.65,87.65,0,0,1-54.69-24.32c-14-13.31-23-29.53-26.25-48.59C-2,77.24,5.47,51.68,25.48,30,39.2,15.09,56.22,6.2,76.1,2.7A84.09,84.09,0,0,1,90.58,1.5ZM72.22,121.15c.34,1.11.56,1.92.84,2.7A2.65,2.65,0,0,0,76,126a18.3,18.3,0,0,0,3.74-.39c10.62-2.45,21.23-4.9,31.82-7.46,3.93-1,7.8-2.18,11.68-3.33a4.83,4.83,0,0,0,3.38-3.61,3,3,0,0,0-2.11-4,6.81,6.81,0,0,0-3.86-.07c-7.53,1.76-15,3.54-22.58,5.29q-9.8,2.27-19.62,4.43a9.38,9.38,0,0,1-3,.07c-1.45-.17-1.9-1.21-1-2.39a7,7,0,0,1,2-1.69,19.16,19.16,0,0,1,5.64-2q17.67-4.19,35.33-8.39a55.35,55.35,0,0,0,5.48-1.65,5.75,5.75,0,0,0,3.78-4A3,3,0,0,0,124.65,93a6.46,6.46,0,0,0-3.85-.14L107.6,95.9c-8.39,2-16.77,3.94-25.17,5.83a21.82,21.82,0,0,1-4.58.33,1.57,1.57,0,0,1-1.16-.79,1.44,1.44,0,0,1,.41-1.21,4,4,0,0,1,1.51-.95c1.54-.53,3.09-1,4.68-1.41,11.32-2.72,22.65-5.37,34-8.11a51.09,51.09,0,0,0,6.21-2.06,5.14,5.14,0,0,0,2.9-2.88c1-2.37-.19-4.54-2.74-4.78a9.74,9.74,0,0,0-3,.17Q103.9,83.88,87.24,87.8c-3,.7-6,1.4-9,2.13a6.51,6.51,0,0,0-5.42,6.26c-.13,1.39-.19,2.79-.23,4.18a54,54,0,0,1-1.72,13,30,30,0,0,1-8.23,14.06,7.17,7.17,0,0,1-3.84,2.16A8.46,8.46,0,0,1,49.07,122a29.63,29.63,0,0,1,.47-7.79,56.14,56.14,0,0,0,.94-12.93c-.33-5.26-.59-10.51-.88-15.77q-.92-16.61-1.84-33.22-.62-11.24-1.23-22.47c0-.51-.13-1-.2-1.52-.41,3.85-.63,7.66-.84,11.47q-.47,8.37-.93,16.75-.66,11.65-1.35,23.31c-.23,3.91-.49,7.81-.71,11.72-.27,4.75-.59,9.49-.77,14.24a26.62,26.62,0,0,0,1.82,10.67,48.16,48.16,0,0,1,1.63,5.19,17.75,17.75,0,0,0,5.11,9,10.81,10.81,0,0,0,8.57,3A10,10,0,0,0,66.44,129q1.93-2.83,3.93-5.61C70.88,122.65,71.49,122,72.22,121.15Zm27.36-65q-12.51,0-25,0a35.12,35.12,0,0,0-3.63.16,6,6,0,0,0-5.56,5.82,5.85,5.85,0,0,0,4.93,6.18,13.1,13.1,0,0,0,2.63.28q25.86,0,51.71,0a25.93,25.93,0,0,0,4.45-.29,6,6,0,0,0,.49-11.78,14.23,14.23,0,0,0-3.59-.4C117.19,56.18,108.38,56.19,99.58,56.19Zm0,85.14H72.75a17.36,17.36,0,0,0-1.81,0,6.17,6.17,0,0,0-5.58,6,6,6,0,0,0,4.8,6,12.86,12.86,0,0,0,2.77.28q27.11,0,54.22,0a10,10,0,0,0,2.21-.25,6,6,0,0,0,.24-11.73,12.42,12.42,0,0,0-3-.33Q113.07,141.31,99.58,141.33Zm-19-2.58c2.29-.32,4.57-.5,6.79-1,6.91-1.49,13.8-3.08,20.7-4.65q6.26-1.42,12.51-2.9a8.77,8.77,0,0,0,5.3-3.39c1.84-2.56.48-5.42-2.65-5.62a9.6,9.6,0,0,0-2.77.23q-19.57,4.57-39.13,9.21c-1.72.41-3.4,1-5.08,1.52a5.33,5.33,0,0,0-3.06,2.72,1.26,1.26,0,0,0,.32,1.74,6.15,6.15,0,0,0,2.91,1.57C77.82,138.43,79.21,138.57,80.6,138.75Zm45.68-66.55c-1.63-.09-3.2-.25-4.77-.25q-21,0-41.91,0c-.42,0-.84,0-1.26,0a5.72,5.72,0,0,0-4.86,3.27,8.07,8.07,0,0,0-.25,6.64,3.48,3.48,0,0,0,3.25,2.46,13.15,13.15,0,0,0,3.46-.26q18.42-4.27,36.81-8.64c2.85-.68,5.67-1.46,8.5-2.23C125.64,73.13,126.25,73.21,126.27,72.21ZM105.61,138l0,.39c.49,0,1,.12,1.47.12q6.78,0,13.56-.06c.79,0,1.58-.06,2.37-.14a4.49,4.49,0,0,0,2.82-1.41c1-1,.76-2.09-.57-2.61a2.65,2.65,0,0,0-.94-.24,15.09,15.09,0,0,0-3.2.13c-4.86,1.1-9.7,2.29-14.54,3.45A8.79,8.79,0,0,0,105.61,138Z"/></g></g></svg>